<svg width="211" height="45" viewBox="0 0 211 45" fill="none" xmlns="http://www.w3.org/2000/svg">
<g opacity="0.5" clip-path="url(#clip0_700_333)">
<path d="M43.3954 28.0185C40.4532 39.8063 28.5007 46.977 16.6977 44.0386C4.90076 41.1002 -2.28119 29.1625 0.662358 17.3773C3.60315 5.58948 15.5549 -1.58321 27.3539 1.35516C39.1556 4.29354 46.3369 16.2327 43.3947 28.0185H43.3954Z" fill="white"/>
<path d="M31.741 19.5629C32.1795 16.6355 29.9477 15.0618 26.8961 14.012L27.886 10.0465L25.4691 9.44492L24.5053 13.3059C23.8616 13.1479 23.2163 12.9962 22.5696 12.8508L23.5402 8.96436L21.124 8.36279L20.134 12.3269C19.6081 12.2073 19.0918 12.089 18.5907 11.9646L18.5934 11.9522L15.2603 11.121L14.6173 13.6992C14.6173 13.6992 16.4106 14.1096 16.3727 14.135C17.3516 14.3791 17.5285 15.026 17.4989 15.5389L16.3713 20.0565C16.4388 20.0737 16.5262 20.0991 16.6226 20.1369L16.3672 20.0737L14.7867 26.4021C14.6669 26.6991 14.3633 27.1446 13.6783 26.9755C13.7031 27.0105 11.9223 26.5375 11.9223 26.5375L10.7224 29.3013L13.8677 30.085C14.4528 30.2308 15.0262 30.3841 15.5907 30.5285L14.5905 34.5393L17.0046 35.1409L17.9945 31.172C18.654 31.3514 19.2942 31.5157 19.9206 31.6718L18.9335 35.6215L21.3497 36.223L22.3507 32.2197C26.472 32.9987 29.5712 32.6845 30.8757 28.9624C31.9268 25.9649 30.8233 24.2358 28.6549 23.1076C30.2341 22.7432 31.4236 21.7058 31.741 19.5629ZM26.218 27.2959C25.4711 30.2934 20.4177 28.6736 18.7793 28.2666L20.1065 22.9529C21.7449 23.362 26.9987 24.1705 26.218 27.2959ZM26.9656 19.5202C26.2841 22.2462 22.0781 20.8609 20.7137 20.5212L21.917 15.7019C23.2814 16.0415 27.6753 16.6754 26.9656 19.5195V19.5202Z" fill="black"/>
<path d="M64.5564 14.0081C66.3428 14.0081 67.8861 14.3278 69.1824 14.9554C70.4862 15.5893 71.5614 16.4432 72.424 17.5171C73.2748 18.5964 73.9081 19.858 74.317 21.3038C74.7232 22.7544 74.927 24.3123 74.927 25.9802C74.927 28.5446 74.4568 30.9646 73.5075 33.2471C72.5575 35.533 71.2702 37.5164 69.6319 39.2077C67.9949 40.8969 66.0619 42.2279 63.8329 43.2117C61.6073 44.1962 59.1877 44.6884 56.5897 44.6884C56.2538 44.6884 55.6631 44.6788 54.8288 44.6616C53.9945 44.6444 53.0355 44.5585 51.9617 44.4141C50.8074 44.2495 49.6624 44.0251 48.5314 43.7418C47.3478 43.4563 46.198 43.0461 45.1012 42.518L54.7469 2.03938L63.3861 0.702881L59.9325 15.0668C60.6507 14.7426 61.3962 14.4822 62.1601 14.2886C62.9443 14.0982 63.7487 14.004 64.5557 14.0081H64.5564ZM57.3097 37.8437C58.6108 37.8437 59.8361 37.524 60.9885 36.897C62.1468 36.2646 63.1633 35.4022 63.9754 34.3629C64.8241 33.2792 65.4919 32.0657 65.9531 30.7693C66.4367 29.4293 66.6823 28.0151 66.6787 26.5907C66.6787 24.8087 66.3806 23.4213 65.7865 22.4155C65.1925 21.4152 64.0931 20.9119 62.4961 20.9119C61.9729 20.9119 61.2996 21.0116 60.4639 21.1897C59.6255 21.3788 58.8751 21.7713 58.2026 22.3619L54.5245 37.6161C54.7462 37.6553 54.9424 37.6924 55.1097 37.7275C55.2735 37.7653 55.4539 37.7921 55.6349 37.8107C55.8256 37.832 56.0438 37.843 56.3075 37.843L57.3091 37.8437H57.3097ZM83.8863 43.9143H75.6346L82.6032 14.6289H90.9113L83.8863 43.9143ZM87.9017 11.0608C86.7759 11.0701 85.6785 10.7086 84.7792 10.0323C83.845 9.35026 83.3817 8.30044 83.3817 6.88557C83.3817 6.10732 83.5401 5.37719 83.8547 4.68832C84.1587 4.021 84.585 3.41637 85.1116 2.90563C85.6395 2.40246 86.2524 1.99675 86.9221 1.70732C87.6191 1.40987 88.3698 1.2587 89.1277 1.26319C90.2787 1.26319 91.3168 1.60557 92.2475 2.29169C93.174 2.98126 93.6401 4.03107 93.6401 5.43838C93.6446 6.19801 93.4825 6.94941 93.1651 7.63976C92.864 8.30772 92.4389 8.91263 91.9122 9.42244C91.3856 9.92626 90.7723 10.331 90.1018 10.6173C89.412 10.9184 88.6809 11.0608 87.9017 11.0608ZM98.1428 7.33244L106.786 5.99526L104.663 14.6275H113.919L112.248 21.4186H103.048L100.597 31.6624C100.371 32.5156 100.243 33.3131 100.207 34.0549C100.166 34.7994 100.261 35.4388 100.484 35.9771C100.706 36.5168 101.104 36.9328 101.682 37.2263C102.258 37.5254 103.082 37.6759 104.163 37.6759C105.053 37.6759 105.921 37.5914 106.758 37.4236C107.618 37.2534 108.465 37.0213 109.291 36.7293L109.908 43.0783C108.724 43.5066 107.513 43.8591 106.284 44.1336C104.981 44.4334 103.439 44.5771 101.656 44.5771C99.0921 44.5771 97.1047 44.1969 95.6887 43.4406C94.2748 42.6789 93.2752 41.6366 92.677 40.318C92.0871 39.0049 91.8234 37.4903 91.8971 35.7833C91.9728 34.0728 92.2316 32.2743 92.677 30.3816L98.1428 7.33244ZM113.556 32.2206C113.556 29.6975 113.965 27.3194 114.782 25.0919C115.598 22.8631 116.773 20.914 118.297 19.242C119.816 17.5783 121.667 16.2589 123.847 15.2909C126.014 14.3284 128.442 13.8431 131.117 13.8431C132.793 13.8431 134.289 14.0012 135.606 14.3181C136.927 14.6378 138.122 15.051 139.204 15.5694L136.359 22.0319C135.6 21.7275 134.828 21.4581 134.045 21.2248C133.246 20.9793 132.272 20.8611 131.119 20.8611C128.364 20.8611 126.188 21.8098 124.567 23.6991C122.952 25.5904 122.139 28.1362 122.139 31.3303C122.139 33.223 122.549 34.7527 123.369 35.9235C124.186 37.0943 125.694 37.6773 127.884 37.6773C128.964 37.6773 130.008 37.5646 131.006 37.3446C132.013 37.1218 132.902 36.8413 133.684 36.5099L134.301 43.1347C133.172 43.5672 132.018 43.9308 130.845 44.2237C129.578 44.5331 128.073 44.6926 126.326 44.6926C124.021 44.6926 122.069 44.3564 120.473 43.6923C118.876 43.0192 117.557 42.1248 116.517 40.9918C115.472 39.856 114.722 38.5291 114.258 37.0077C113.794 35.4863 113.556 33.8864 113.556 32.2206H113.556ZM150.213 44.6905C148.244 44.6905 146.532 44.3908 145.081 43.7974C143.634 43.2048 142.436 42.3716 141.488 41.2922C140.538 40.2183 139.828 38.9458 139.341 37.4793C138.855 36.0136 138.621 34.3904 138.621 32.6118C138.621 30.3816 138.979 28.1513 139.704 25.9259C140.426 23.6984 141.497 21.695 142.912 19.9151C144.318 18.1324 146.053 16.6749 148.094 15.5384C150.133 14.4096 152.479 13.8417 155.114 13.8417C157.048 13.8417 158.749 14.1421 160.221 14.7354C161.685 15.3274 162.891 16.1668 163.845 17.2407C164.788 18.3201 165.505 19.5871 165.985 21.0563C166.471 22.5186 166.711 24.1459 166.711 25.9259C166.711 28.1493 166.357 30.3809 165.656 32.6111C164.953 34.8318 163.91 36.8393 162.533 38.6226C161.159 40.4033 159.442 41.8594 157.377 42.991C155.317 44.1233 152.926 44.6905 150.213 44.6905ZM154.337 20.8618C153.113 20.8618 152.032 21.2158 151.106 21.9164C150.177 22.6252 149.397 23.5169 148.768 24.5908C148.131 25.6701 147.661 26.8471 147.342 28.1266C147.025 29.4088 146.87 30.6222 146.87 31.7724C146.87 33.6307 147.171 35.0793 147.76 36.1201C148.358 37.1555 149.433 37.6773 150.994 37.6773C152.222 37.6773 153.298 37.3246 154.229 36.6172C155.153 35.9139 155.935 35.0222 156.568 33.9449C157.2 32.8724 157.676 31.6913 157.995 30.4091C158.306 29.131 158.466 27.9121 158.466 26.7626C158.466 24.9091 158.167 23.4584 157.571 22.4183C156.977 21.3822 155.897 20.8611 154.337 20.8611V20.8618ZM175.703 43.9143H167.446L174.414 14.6289H182.726L175.703 43.9143ZM179.713 11.0608C178.588 11.0702 177.491 10.7087 176.594 10.0323C175.663 9.35026 175.196 8.30044 175.196 6.88557C175.196 6.10732 175.357 5.37719 175.671 4.68832C175.973 4.02021 176.399 3.4153 176.927 2.90563C177.455 2.40228 178.069 1.99656 178.739 1.70732C179.433 1.40981 180.182 1.25861 180.937 1.26319C182.092 1.26319 183.133 1.60557 184.062 2.29169C184.99 2.98126 185.459 4.03107 185.459 5.43838C185.459 6.21938 185.292 6.95226 184.98 7.63976C184.668 8.32726 184.249 8.91919 183.73 9.42244C183.202 9.92507 182.589 10.3297 181.92 10.6173C181.228 10.9184 180.497 11.0608 179.713 11.0608ZM188.673 15.9606C189.299 15.7777 189.998 15.5577 190.758 15.3184C191.604 15.0566 192.462 14.8354 193.328 14.6557C194.271 14.4494 195.334 14.281 196.504 14.1511C197.673 14.0184 199.006 13.9538 200.486 13.9538C204.838 13.9538 207.838 15.2194 209.494 17.7433C211.149 20.2671 211.436 23.7204 210.362 28.0991L206.566 43.9116H198.26L201.939 28.4311C202.163 27.4652 202.339 26.5302 202.469 25.6172C202.601 24.7124 202.593 23.9143 202.44 23.2247C202.305 22.5636 201.941 21.9713 201.412 21.552C200.867 21.1264 200.045 20.9126 198.93 20.9126C197.825 20.917 196.724 21.0303 195.642 21.2509L190.233 43.9095H181.924L188.673 15.9606Z" fill="white"/>
</g>
<defs>
<clipPath id="clip0_700_333">
<rect width="211" height="44" fill="white" transform="translate(0 0.697266)"/>
</clipPath>
</defs>
</svg>
