<svg width="240" height="43" viewBox="0 0 240 43" fill="none" xmlns="http://www.w3.org/2000/svg">
<g clip-path="url(#clip0_694_242)">
<path d="M48.4383 12.0136C39.7197 12.0136 32.9073 18.6457 32.9073 27.5241C32.9073 36.4025 39.5476 42.9778 48.4383 42.9778C57.3291 42.9778 64.0848 36.289 64.0848 27.4674C64.0848 18.7025 57.4445 12.0136 48.4383 12.0136ZM48.4971 36.5793C43.5322 36.5793 39.894 32.7154 39.894 27.5263C39.894 22.2783 43.4734 18.4165 48.4383 18.4165C53.4621 18.4165 57.0981 22.3372 57.0981 27.5263C57.0981 32.7154 53.4621 36.5793 48.4971 36.5793ZM65.9889 18.7614H70.3199V42.4037H77.2477V12.5899H65.9889V18.7614ZM15.4722 18.4143C19.1104 18.4143 21.997 20.6628 23.0928 24.0072H30.4259C29.097 16.8578 23.2083 12.0136 15.531 12.0136C6.81239 12.0136 0 18.6457 0 27.5263C0 36.4069 6.64028 42.98 15.531 42.98C23.0362 42.98 29.0403 38.1359 30.3693 30.9275H23.0928C22.0537 34.2719 19.1671 36.5793 15.5288 36.5793C10.5051 36.5793 6.9845 32.7154 6.9845 27.5263C6.98667 22.2783 10.4506 18.4143 15.4722 18.4143ZM197.622 24.6425L192.542 23.8937C190.117 23.5488 188.385 22.7411 188.385 20.8375C188.385 18.7614 190.638 17.7245 193.697 17.7245C197.045 17.7245 199.182 19.1653 199.644 21.5295H206.341C205.589 15.5327 200.971 12.0158 193.871 12.0158C186.538 12.0158 181.688 15.7641 181.688 21.0689C181.688 26.1422 184.865 29.085 191.272 30.0062L196.352 30.755C198.836 31.0999 200.221 32.0823 200.221 33.927C200.221 36.2912 197.797 37.2714 194.448 37.2714C190.348 37.2714 188.039 35.5992 187.693 33.0625H180.88C181.516 38.8868 186.076 42.98 194.389 42.98C201.953 42.98 206.975 39.5199 206.975 33.5799C206.975 28.2751 203.339 25.507 197.622 24.6425ZM73.7838 0.30818C71.2436 0.30818 69.3373 2.15285 69.3373 4.68954C69.3373 7.22623 71.2414 9.07089 73.7838 9.07089C76.324 9.07089 78.2303 7.22623 78.2303 4.68954C78.2303 2.15285 76.324 0.30818 73.7838 0.30818ZM175.453 22.7978C175.453 16.3404 171.528 12.0158 163.214 12.0158C155.363 12.0158 150.975 15.9955 150.108 22.108H156.979C157.325 19.7438 159.173 17.7834 163.099 17.7834C166.621 17.7834 168.353 19.3399 168.353 21.2435C168.353 23.7234 165.177 24.3565 161.251 24.7604C155.94 25.3367 149.358 27.1814 149.358 34.1016C149.358 39.4653 153.343 42.9233 159.694 42.9233C164.659 42.9233 167.776 40.8472 169.336 37.5595C169.567 40.5001 171.761 42.4037 174.822 42.4037H178.863V36.2344H175.455V22.7978H175.453ZM168.641 30.2944C168.641 34.2741 165.177 37.2146 160.961 37.2146C158.362 37.2146 156.169 36.1187 156.169 33.8134C156.169 30.8729 159.691 30.0652 162.924 29.7202C166.042 29.4321 167.774 28.7401 168.641 27.4128V30.2944ZM131.864 12.0136C127.995 12.0136 124.762 13.6291 122.453 16.3382V0.0200195H115.525V42.4037H122.338V38.483C124.647 41.3078 127.939 42.98 131.864 42.98C140.178 42.98 146.472 36.4069 146.472 27.5263C146.472 18.6457 140.062 12.0136 131.864 12.0136ZM130.825 36.5793C125.86 36.5793 122.222 32.7154 122.222 27.5263C122.222 22.3372 125.917 18.4165 130.882 18.4165C135.906 18.4165 139.426 22.2805 139.426 27.5263C139.426 32.7154 135.79 36.5793 130.825 36.5793ZM98.955 12.0136C94.4519 12.0136 91.5065 13.8583 89.7745 16.4539V12.5899H82.9033V42.4015H89.8312V26.199C89.8312 21.643 92.7178 18.4143 96.9899 18.4143C100.975 18.4143 103.456 21.2391 103.456 25.3345V42.4037H110.384V24.8171C110.386 17.3184 106.519 12.0136 98.955 12.0136ZM240 26.5461C240 18.0126 233.765 12.0158 225.393 12.0158C216.502 12.0158 209.977 18.7046 209.977 27.5263C209.977 36.8107 216.964 42.98 225.508 42.98C232.726 42.98 238.383 38.7122 239.826 32.6586H232.608C231.569 35.311 229.029 36.8107 225.621 36.8107C221.175 36.8107 217.826 34.0427 217.077 29.1985H239.998V26.5461H240ZM217.482 24.2386C218.58 20.0865 221.698 18.0694 225.277 18.0694C229.203 18.0694 232.205 20.3179 232.898 24.2386H217.482Z" fill="black"/>
</g>
<defs>
<clipPath id="clip0_694_242">
<rect width="240" height="43" fill="white"/>
</clipPath>
</defs>
</svg>
