<svg width="68" height="68" viewBox="0 0 68 68" fill="none" xmlns="http://www.w3.org/2000/svg">
<path d="M46.75 26.6333L21.25 11.9283" stroke="#B7FF77" stroke-width="2" stroke-linecap="round" stroke-linejoin="round"/>
<path d="M59.5 45.3333V22.6667C59.499 21.673 59.2367 20.697 58.7394 19.8366C58.2421 18.9763 57.5273 18.2619 56.6667 17.765L36.8333 6.43167C35.9719 5.93432 34.9947 5.67249 34 5.67249C33.0053 5.67249 32.0281 5.93432 31.1667 6.43167L11.3333 17.765C10.4727 18.2619 9.75794 18.9763 9.26064 19.8366C8.76334 20.697 8.50102 21.673 8.5 22.6667V45.3333C8.50102 46.3271 8.76334 47.303 9.26064 48.1634C9.75794 49.0237 10.4727 49.7381 11.3333 50.235L31.1667 61.5683C32.0281 62.0657 33.0053 62.3275 34 62.3275C34.9947 62.3275 35.9719 62.0657 36.8333 61.5683L56.6667 50.235C57.5273 49.7381 58.2421 49.0237 58.7394 48.1634C59.2367 47.303 59.499 46.3271 59.5 45.3333Z" stroke="#B7FF77" stroke-width="2" stroke-linecap="round" stroke-linejoin="round"/>
<path d="M9.265 19.72L34 34.0283L58.735 19.72" stroke="#B7FF77" stroke-width="2" stroke-linecap="round" stroke-linejoin="round"/>
<path d="M34 62.56V34" stroke="#B7FF77" stroke-width="2" stroke-linecap="round" stroke-linejoin="round"/>
</svg>
