<svg width="68" height="68" viewBox="0 0 68 68" fill="none" xmlns="http://www.w3.org/2000/svg">
<path d="M53.8333 31.1666H14.1667C11.0371 31.1666 8.5 33.7037 8.5 36.8333V56.6666C8.5 59.7962 11.0371 62.3333 14.1667 62.3333H53.8333C56.9629 62.3333 59.5 59.7962 59.5 56.6666V36.8333C59.5 33.7037 56.9629 31.1666 53.8333 31.1666Z" stroke="#B7FF77" stroke-width="2" stroke-linecap="round" stroke-linejoin="round"/>
<path d="M19.8333 31.1666V19.8333C19.8333 16.0761 21.3259 12.4727 23.9826 9.81595C26.6394 7.15918 30.2427 5.66663 34 5.66663C37.7572 5.66663 41.3606 7.15918 44.0173 9.81595C46.6741 12.4727 48.1666 16.0761 48.1666 19.8333V31.1666" stroke="#B7FF77" stroke-width="2" stroke-linecap="round" stroke-linejoin="round"/>
</svg>
