<svg width="68" height="69" viewBox="0 0 68 69" fill="none" xmlns="http://www.w3.org/2000/svg">
<path d="M48.1666 60V54.3333C48.1666 51.3275 46.9726 48.4449 44.8472 46.3195C42.7218 44.194 39.8391 43 36.8333 43H14.1666C11.1609 43 8.27818 44.194 6.15277 46.3195C4.02736 48.4449 2.83331 51.3275 2.83331 54.3333V60" stroke="#B7FF77" stroke-width="2" stroke-linecap="round" stroke-linejoin="round"/>
<path d="M25.5 31.6667C31.7593 31.6667 36.8334 26.5926 36.8334 20.3333C36.8334 14.0741 31.7593 9 25.5 9C19.2408 9 14.1667 14.0741 14.1667 20.3333C14.1667 26.5926 19.2408 31.6667 25.5 31.6667Z" stroke="#B7FF77" stroke-width="2" stroke-linecap="round" stroke-linejoin="round"/>
<path d="M65.1667 60V54.3333C65.1648 51.8222 64.329 49.3828 62.7906 47.3982C61.2521 45.4135 59.0981 43.9961 56.6667 43.3683" stroke="#B7FF77" stroke-width="2" stroke-linecap="round" stroke-linejoin="round"/>
<path d="M45.3333 9.36829C47.7712 9.99247 49.9319 11.4103 51.475 13.3982C53.018 15.3861 53.8555 17.831 53.8555 20.3475C53.8555 22.8639 53.018 25.3088 51.475 27.2967C49.9319 29.2846 47.7712 30.7024 45.3333 31.3266" stroke="#B7FF77" stroke-width="2" stroke-linecap="round" stroke-linejoin="round"/>
</svg>
