<svg width="70" height="68" viewBox="0 0 70 68" fill="none" xmlns="http://www.w3.org/2000/svg">
<path d="M3.375 11.3334V28.3334H20.625" stroke="#B7FF77" stroke-width="2" stroke-linecap="round" stroke-linejoin="round"/>
<path d="M66.625 56.6666V39.6666H49.375" stroke="#B7FF77" stroke-width="2" stroke-linecap="round" stroke-linejoin="round"/>
<path d="M59.4087 25.5C57.9506 21.4392 55.4725 17.8087 52.2055 14.947C48.9386 12.0854 44.9893 10.086 40.7262 9.13541C36.4631 8.18481 32.0251 8.31398 27.8263 9.51087C23.6276 10.7078 19.8049 12.9334 16.715 15.98L3.375 28.3333M66.625 39.6667L53.285 52.02C50.1951 55.0667 46.3724 57.2923 42.1737 58.4892C37.9749 59.6861 33.5369 59.8152 29.2738 58.8646C25.0107 57.914 21.0614 55.9146 17.7945 53.053C14.5275 50.1914 12.0494 46.5608 10.5912 42.5" stroke="#B7FF77" stroke-width="2" stroke-linecap="round" stroke-linejoin="round"/>
</svg>
