<svg width="298" height="60" viewBox="0 0 298 60" fill="none" xmlns="http://www.w3.org/2000/svg">
<path d="M18.2292 25.043L29.8045 13.4724L41.3846 25.0524L48.1161 18.3162L29.8045 0L11.493 18.3115L18.2292 25.043Z" fill="black"/>
<path d="M0 29.8008L6.73374 23.067L13.4675 29.8008L6.73374 36.5345L0 29.8008Z" fill="black"/>
<path d="M18.2292 34.5565L29.8045 46.1319L41.3846 34.5518L48.1208 41.2786L48.1161 41.2833L29.8045 59.5996L11.493 41.2927L11.4836 41.2833L18.2292 34.5565Z" fill="black"/>
<path d="M46.1302 29.8024L52.864 23.0687L59.5977 29.8024L52.864 36.5362L46.1302 29.8024Z" fill="black"/>
<path d="M36.6349 29.7975L29.8045 22.9624L24.7536 28.0134L24.1699 28.5924L22.9742 29.788L22.9648 29.7975L22.9742 29.8116L29.8045 36.6372L36.6349 29.8022L36.6396 29.7975H36.6349Z" fill="black"/>
<path d="M70.104 14.4421H84.7533C88.3873 14.4421 91.1364 15.3836 93.0005 17.2665C93.7028 17.9621 94.2565 18.7931 94.6279 19.7091C94.9993 20.6251 95.1808 21.607 95.1612 22.5952V22.6847C95.1738 23.4943 95.0611 24.3009 94.827 25.076C94.6184 25.7433 94.3157 26.3773 93.9279 26.9589C93.5664 27.5074 93.1289 28.0019 92.6287 28.4276C92.1399 28.8483 91.6044 29.2116 91.0329 29.5103C92.6811 30.0844 94.1634 31.0543 95.3495 32.3347C96.3977 33.5272 96.9217 35.1748 96.9217 37.2774V37.3669C96.9515 38.68 96.6658 39.9811 96.0885 41.161C95.5292 42.2481 94.7092 43.1796 93.7019 43.8724C92.5631 44.6359 91.2951 45.1862 89.9596 45.4964C88.3729 45.8727 86.7463 46.0545 85.1157 46.0378H70.104V14.4421ZM83.2846 27.2178C84.552 27.2791 85.8133 27.0064 86.9422 26.427C87.3824 26.1699 87.7419 25.7946 87.9798 25.3437C88.2178 24.8927 88.3247 24.3842 88.2885 23.8756V23.7862C88.3118 23.3176 88.2166 22.8507 88.0117 22.4286C87.8069 22.0066 87.4989 21.6429 87.1164 21.3713C86.3349 20.8159 85.2068 20.5381 83.7318 20.5381H76.8779V27.2178H83.2846ZM85.1346 39.9512C86.3973 40.0219 87.6542 39.733 88.7592 39.118C89.1897 38.8414 89.5382 38.4545 89.7683 37.9975C89.9985 37.5404 90.1019 37.0301 90.0679 36.5195V36.4301C90.0848 35.9448 89.9825 35.4628 89.77 35.0262C89.5574 34.5896 89.2411 34.2118 88.8487 33.9258C88.039 33.2982 86.7304 32.9843 84.9227 32.9843H76.8779V39.9512H85.1346Z" fill="black"/>
<path d="M105.649 14.4421H112.602V46.0472H105.649V14.4421Z" fill="black"/>
<path d="M123.123 14.4421H129.534L144.353 33.8928V14.4421H151.216V46.0472H145.299L129.995 25.9563V46.0472H123.123V14.4421Z" fill="black"/>
<path d="M172.267 14.2161H178.669L192.212 46.0471H184.954L182.063 38.9579H168.699L165.809 46.0471H158.72L172.267 14.2161ZM179.583 32.8195L175.374 22.5669L171.185 32.8195H179.583Z" fill="black"/>
<path d="M199.73 14.4421H206.141L220.951 33.8928V14.4421H227.814V46.0472H221.897L206.593 25.9563V46.0472H199.73V14.4421Z" fill="black"/>
<path d="M252.838 46.6026C250.622 46.6216 248.425 46.1925 246.38 45.3411C244.454 44.5458 242.706 43.3731 241.241 41.892C239.775 40.4109 238.62 38.6514 237.845 36.7172C237.027 34.6941 236.613 32.5304 236.626 30.3482V30.2588C236.59 25.9573 238.245 21.8138 241.235 18.7211C242.706 17.2104 244.467 16.0127 246.413 15.2C248.529 14.3233 250.802 13.8861 253.092 13.9149C254.447 13.9048 255.8 14.0262 257.131 14.2774C258.27 14.4928 259.384 14.8257 260.455 15.2706C261.426 15.6795 262.35 16.1942 263.208 16.8052C264.046 17.4012 264.834 18.0656 265.562 18.7917L261.142 23.8945C260.012 22.8524 258.745 21.9702 257.376 21.2725C256.031 20.6293 254.555 20.307 253.064 20.331C251.823 20.3178 250.594 20.5686 249.458 21.067C248.322 21.5653 247.304 22.2997 246.474 23.2213C245.65 24.1406 245.005 25.2054 244.572 26.3611C244.118 27.5824 243.89 28.876 243.899 30.1788V30.2682C243.894 31.5691 244.122 32.8604 244.572 34.0811C245 35.241 245.638 36.3118 246.455 37.2398C247.279 38.1728 248.294 38.918 249.431 39.4248C250.568 39.9316 251.8 40.1881 253.045 40.1771C254.63 40.2271 256.203 39.8859 257.625 39.1839C258.979 38.446 260.231 37.5345 261.349 36.4725L265.774 40.9444C264.993 41.7924 264.148 42.5793 263.246 43.2981C262.36 43.9984 261.399 44.5968 260.379 45.0822C259.293 45.5935 258.148 45.9713 256.971 46.2072C255.611 46.48 254.226 46.6125 252.838 46.6026Z" fill="black"/>
<path d="M273.979 14.4421H297.765V20.6276H280.818V27.039H295.741V33.2244H280.842V39.8617H298V46.0472H273.993L273.979 14.4421Z" fill="black"/>
</svg>
