<svg width="287" height="58" viewBox="0 0 287 58" fill="none" xmlns="http://www.w3.org/2000/svg">
<path d="M17.5248 24.0753L28.6529 12.9518L39.7854 24.0844L46.2568 17.6085L28.6529 0L11.0489 17.6039L17.5248 24.0753Z" fill="white" fill-opacity="0.5"/>
<path d="M0 28.6492L6.47353 22.1756L12.9471 28.6492L6.47353 35.1227L0 28.6492Z" fill="white" fill-opacity="0.5"/>
<path d="M17.5248 33.2211L28.6529 44.3491L39.7854 33.2166L46.2613 39.6834L46.2568 39.6879L28.6529 57.2964L11.0489 39.697L11.0399 39.6879L17.5248 33.2211Z" fill="white" fill-opacity="0.5"/>
<path d="M44.3477 28.6509L50.8212 22.1773L57.2947 28.6509L50.8212 35.1244L44.3477 28.6509Z" fill="white" fill-opacity="0.5"/>
<path d="M35.2193 28.6461L28.6529 22.0752L23.7971 26.931L23.2359 27.4876L22.0864 28.6371L22.0774 28.6461L22.0864 28.6597L28.6529 35.2216L35.2193 28.6507L35.2238 28.6461H35.2193Z" fill="white" fill-opacity="0.5"/>
<path d="M67.3951 13.884H81.4783C84.9719 13.884 87.6148 14.7891 89.4068 16.5993C90.082 17.268 90.6143 18.0668 90.9713 18.9474C91.3284 19.8281 91.5028 20.772 91.484 21.7221V21.8081C91.4962 22.5864 91.3878 23.3619 91.1627 24.107C90.9622 24.7485 90.6712 25.358 90.2983 25.9172C89.9508 26.4445 89.5303 26.9198 89.0493 27.3291C88.5794 27.7336 88.0647 28.0828 87.5152 28.37C89.0998 28.9219 90.5247 29.8542 91.665 31.0852C92.6727 32.2317 93.1765 33.8156 93.1765 35.8369V35.9229C93.2052 37.1853 92.9305 38.4362 92.3755 39.5704C91.8378 40.6155 91.0495 41.511 90.0811 42.1771C88.9863 42.911 87.7673 43.4401 86.4834 43.7383C84.958 44.1001 83.3943 44.2748 81.8267 44.2588H67.3951V13.884ZM80.0663 26.1661C81.2848 26.225 82.4973 25.9628 83.5826 25.4058C84.0058 25.1586 84.3514 24.7978 84.5801 24.3643C84.8089 23.9308 84.9117 23.4419 84.8769 22.953V22.867C84.8993 22.4165 84.8078 21.9677 84.6108 21.5619C84.4139 21.1561 84.1178 20.8066 83.75 20.5455C82.9988 20.0115 81.9142 19.7445 80.4963 19.7445H73.9072V26.1661H80.0663ZM81.8448 38.4074C83.0587 38.4754 84.267 38.1976 85.3294 37.6064C85.7433 37.3405 86.0783 36.9685 86.2995 36.5291C86.5208 36.0898 86.6202 35.5992 86.5875 35.1083V35.0223C86.6038 34.5558 86.5055 34.0924 86.3011 33.6727C86.0968 33.253 85.7927 32.8897 85.4154 32.6148C84.637 32.0114 83.379 31.7097 81.6412 31.7097H73.9072V38.4074H81.8448Z" fill="white" fill-opacity="0.5"/>
<path d="M101.567 13.884H108.251V44.2678H101.567V13.884Z" fill="white" fill-opacity="0.5"/>
<path d="M118.365 13.884H124.529L138.775 32.5831V13.884H145.373V44.2678H139.684L124.972 24.9532V44.2678H118.365V13.884Z" fill="white" fill-opacity="0.5"/>
<path d="M165.611 13.6667H171.765L184.785 44.2677H177.807L175.028 37.4524H162.18L159.402 44.2677H152.586L165.611 13.6667ZM172.643 31.5513L168.597 21.6949L164.57 31.5513H172.643Z" fill="white" fill-opacity="0.5"/>
<path d="M192.012 13.884H198.176L212.413 32.5831V13.884H219.011V44.2678H213.322L198.61 24.9532V44.2678H192.012V13.884Z" fill="white" fill-opacity="0.5"/>
<path d="M243.068 44.8019C240.938 44.8201 238.826 44.4076 236.859 43.5891C235.008 42.8245 233.328 41.6971 231.919 40.2733C230.51 38.8494 229.4 37.1579 228.654 35.2985C227.868 33.3535 227.47 31.2734 227.482 29.1756V29.0896C227.447 24.9543 229.039 20.9709 231.913 17.9977C233.327 16.5454 235.02 15.394 236.891 14.6127C238.925 13.7699 241.11 13.3496 243.312 13.3773C244.615 13.3675 245.915 13.4842 247.195 13.7257C248.29 13.9328 249.361 14.2528 250.39 14.6806C251.324 15.0737 252.212 15.5684 253.038 16.1559C253.843 16.7288 254.6 17.3676 255.3 18.0656L251.051 22.9712C249.965 21.9694 248.747 21.1213 247.431 20.4505C246.137 19.8322 244.718 19.5224 243.285 19.5454C242.093 19.5327 240.911 19.7739 239.818 20.253C238.726 20.732 237.748 21.438 236.95 22.324C236.158 23.2078 235.538 24.2315 235.121 25.3425C234.685 26.5167 234.466 27.7602 234.474 29.0126V29.0986C234.47 30.3493 234.689 31.5906 235.121 32.7642C235.533 33.8793 236.146 34.9087 236.932 35.8008C237.724 36.6978 238.699 37.4142 239.792 37.9014C240.885 38.3886 242.07 38.6352 243.267 38.6247C244.791 38.6727 246.303 38.3447 247.67 37.6698C248.972 36.9605 250.175 36.0842 251.25 35.0632L255.504 39.3623C254.753 40.1775 253.94 40.934 253.074 41.625C252.222 42.2982 251.298 42.8736 250.318 43.3402C249.273 43.8318 248.173 44.195 247.041 44.4218C245.733 44.684 244.402 44.8114 243.068 44.8019Z" fill="white" fill-opacity="0.5"/>
<path d="M263.392 13.884H286.259V19.8305H269.967V25.9941H284.313V31.9405H269.99V38.3214H286.485V44.2678H263.405L263.392 13.884Z" fill="white" fill-opacity="0.5"/>
</svg>
