<svg width="308" height="36" viewBox="0 0 308 36" fill="none" xmlns="http://www.w3.org/2000/svg">
<g opacity="0.5" clip-path="url(#clip0_700_329)">
<path d="M273.45 30.7394C275.104 32.4657 284.199 40.7365 298.473 31.137C308.798 23.2263 308.539 6.07634 307.548 0.894299C307.202 1.64867 295.224 27.4875 273.45 30.7394ZM307.548 0.890901C307.42 0.83993 294.14 -0.940653 281.012 7.38119C272.86 12.5462 271.779 20.1103 272.152 25.1632C291.236 23.0496 307.113 1.48556 307.548 0.890901Z" fill="white"/>
<path d="M307.548 0.890901C307.42 0.83993 294.14 -0.940653 281.012 7.38119C272.86 12.5462 271.779 20.1103 272.152 25.1632C291.236 23.0496 307.113 1.48556 307.548 0.890901Z" fill="white"/>
<path d="M21.2907 29.7302H6.42242V21.9384H21.2907C25.006 21.9384 26.9051 23.6884 26.9051 25.9549C26.9051 28.1399 25.0474 29.7302 21.2907 29.7302ZM20.8073 17.7656H6.42242V11.204H20.8073C24.7229 11.204 26.2594 12.5632 26.2594 14.4253C26.2594 16.1244 24.4812 17.7656 20.8073 17.7656ZM24.6055 19.7535C30.8691 19.553 33.1307 16.4914 33.1307 13.1545C33.1273 9.49475 30.1785 6.47388 22.9861 6.47388H0V34.3821H23.6732C29.5708 34.3821 33.9767 31.9593 33.9767 26.7501C33.9767 23.053 31.5113 19.9132 24.602 19.7535H24.6055ZM41.5627 6.47388V34.3821H47.9955V6.47388H41.5627ZM74.0201 11.7613H88.1771V6.47388H53.4718V11.7613H67.6115V34.3821H74.0339L74.0201 11.7613ZM93.6603 6.47388V34.3821H100.083V23.5083H115.151V18.9176H100.083V11.2855H124.567V6.47388H93.6603ZM129.771 6.47388V34.3821H136.193V6.47388H129.771ZM151.238 13.27L172.542 34.3821H179.814V6.47388H173.471V26.5904L153.03 6.47388H144.87V34.3821H151.238V13.27ZM188.495 6.47388V34.3821H219.916V29.6928H194.917V22.02H209.903V17.6875H194.917V11.2855H219.923V6.47388H188.495ZM262.939 6.47388H254.456L243.631 16.2943L232.882 6.47388H224.277L239.387 20.2292L223.714 34.3821H232.198L243.548 24.086L254.86 34.3821H263.492L247.792 20.1918L262.939 6.47388Z" fill="white"/>
</g>
<defs>
<clipPath id="clip0_700_329">
<rect width="308" height="35" fill="white" transform="translate(0 0.697266)"/>
</clipPath>
</defs>
</svg>
