<svg width="231" height="42" viewBox="0 0 231 42" fill="none" xmlns="http://www.w3.org/2000/svg">
<path d="M46.6219 12.1437C38.2302 12.1437 31.6733 18.4732 31.6733 26.9465C31.6733 35.4199 38.0645 41.6952 46.6219 41.6952C55.1792 41.6952 61.6816 35.3115 61.6816 26.8923C61.6816 18.5273 55.2904 12.1437 46.6219 12.1437ZM46.6785 35.5886C41.8997 35.5886 38.3979 31.9009 38.3979 26.9486C38.3979 21.94 41.8431 18.2544 46.6219 18.2544C51.4573 18.2544 54.957 21.9963 54.957 26.9486C54.957 31.9009 51.4573 35.5886 46.6785 35.5886ZM63.5143 18.5836H67.6829V41.1472H74.3509V12.6937H63.5143V18.5836ZM14.892 18.2523C18.3938 18.2523 21.1721 20.3983 22.2269 23.5901H29.2849C28.0058 16.7668 22.338 12.1437 14.9486 12.1437C6.55692 12.1437 0 18.4732 0 26.9486C0 35.424 6.39127 41.6973 14.9486 41.6973C22.1723 41.6973 27.9513 37.0741 29.2304 30.1946H22.2269C21.2267 33.3864 18.4483 35.5886 14.9465 35.5886C10.1111 35.5886 6.72258 31.9009 6.72258 26.9486C6.72467 21.94 10.0587 18.2523 14.892 18.2523ZM190.212 24.1964L185.322 23.4818C182.988 23.1526 181.321 22.3817 181.321 20.5649C181.321 18.5836 183.489 17.594 186.433 17.594C189.656 17.594 191.713 18.969 192.158 21.2254H198.603C197.88 15.5022 193.435 12.1458 186.601 12.1458C179.543 12.1458 174.875 15.723 174.875 20.7858C174.875 25.6277 177.932 28.4362 184.099 29.3154L188.989 30.03C191.38 30.3592 192.713 31.2967 192.713 33.0572C192.713 35.3136 190.379 36.2491 187.156 36.2491C183.21 36.2491 180.987 34.6532 180.654 32.2322H174.097C174.709 37.7908 179.098 41.6973 187.1 41.6973C194.38 41.6973 199.213 38.395 199.213 32.726C199.213 27.6632 195.714 25.0214 190.212 24.1964ZM71.0169 0.97228C68.572 0.97228 66.7372 2.73279 66.7372 5.15374C66.7372 7.5747 68.5699 9.3352 71.0169 9.3352C73.4619 9.3352 75.2966 7.5747 75.2966 5.15374C75.2966 2.73279 73.4619 0.97228 71.0169 0.97228ZM168.874 22.4359C168.874 16.2731 165.095 12.1458 157.094 12.1458C149.536 12.1458 145.313 15.9439 144.479 21.7775H151.092C151.426 19.5211 153.204 17.6502 156.982 17.6502C160.373 17.6502 162.04 19.1357 162.04 20.9525C162.04 23.3192 158.983 23.9234 155.204 24.3089C150.092 24.8589 143.757 26.6194 143.757 33.2239C143.757 38.3429 147.593 41.6431 153.705 41.6431C158.484 41.6431 161.484 39.6617 162.986 36.5241C163.208 39.3305 165.32 41.1472 168.266 41.1472H172.155V35.2594H168.876V22.4359H168.874ZM162.317 29.5904C162.317 33.3885 158.983 36.1949 154.925 36.1949C152.424 36.1949 150.312 35.149 150.312 32.9489C150.312 30.1425 153.703 29.3716 156.815 29.0425C159.815 28.7674 161.482 28.107 162.317 26.8403V29.5904ZM126.92 12.1437C123.196 12.1437 120.084 13.6854 117.861 16.271V0.697266H111.193V41.1472H117.75V37.4054C119.973 40.1014 123.141 41.6973 126.92 41.6973C134.921 41.6973 140.979 35.424 140.979 26.9486C140.979 18.4732 134.81 12.1437 126.92 12.1437ZM125.919 35.5886C121.141 35.5886 117.639 31.9009 117.639 26.9486C117.639 21.9963 121.195 18.2544 125.974 18.2544C130.809 18.2544 134.198 21.9421 134.198 26.9486C134.198 31.9009 130.698 35.5886 125.919 35.5886ZM95.2442 12.1437C90.91 12.1437 88.075 13.9042 86.408 16.3814V12.6937H79.7944V41.1452H86.4625V25.6819C86.4625 21.3337 89.2409 18.2523 93.3528 18.2523C97.188 18.2523 99.5763 20.9483 99.5763 24.8568V41.1472H106.244V24.3631C106.246 17.2064 102.525 12.1437 95.2442 12.1437ZM231 26.0131C231 17.869 224.999 12.1458 216.94 12.1458C208.383 12.1458 202.103 18.5294 202.103 26.9486C202.103 35.8095 208.828 41.6973 217.052 41.6973C223.999 41.6973 229.444 37.6241 230.832 31.8468H223.885C222.885 34.3781 220.44 35.8095 217.161 35.8095C212.881 35.8095 209.658 33.1677 208.937 28.5445H230.998V26.0131H231ZM209.327 23.8109C210.384 19.8482 213.384 17.9231 216.829 17.9231C220.608 17.9231 223.497 20.0691 224.164 23.8109H209.327Z" fill="white" fill-opacity="0.5"/>
</svg>
